<svg width="22" height="22" viewBox="0 0 22 22" fill="none" xmlns="http://www.w3.org/2000/svg">
<g clip-path="url(#clip0_30_539)">
<path d="M14.1472 21V17C14.2863 15.7473 13.9272 14.4901 13.1472 13.5C16.1472 13.5 19.1472 11.5 19.1472 8C19.2272 6.75 18.8772 5.52 18.1472 4.5C18.4272 3.35 18.4272 2.15 18.1472 1C18.1472 1 17.1472 1 15.1472 2.5C12.5072 2 9.78722 2 7.14722 2.5C5.14722 1 4.14722 1 4.14722 1C3.84722 2.15 3.84722 3.35 4.14722 4.5C3.4191 5.51588 3.0657 6.75279 3.14722 8C3.14722 11.5 6.14722 13.5 9.14722 13.5C8.75722 13.99 8.46722 14.55 8.29722 15.15C8.12722 15.75 8.07722 16.38 8.14722 17V21" stroke="#24223E" stroke-width="2" stroke-linecap="round" stroke-linejoin="round"/>
<path d="M8.14722 17C3.63722 19 3.14722 15 1.14722 15" stroke="#24223E" stroke-width="2" stroke-linecap="round" stroke-linejoin="round"/>
</g>
<defs>
<clipPath id="clip0_30_539">
<rect width="21" height="22" fill="white" transform="translate(0.147217)"/>
</clipPath>
</defs>
</svg>
