<svg width="24" height="24" viewBox="0 0 24 24" fill="none" xmlns="http://www.w3.org/2000/svg">
<path d="M7.47005 0.5H17.1301C20.8101 0.5 23.8 3.49 23.8 7.17V16.83C23.8 18.599 23.0973 20.2955 21.8465 21.5464C20.5956 22.7973 18.899 23.5 17.1301 23.5H7.47005C3.79005 23.5 0.800049 20.51 0.800049 16.83V7.17C0.800049 5.40102 1.50278 3.70446 2.75365 2.4536C4.00451 1.20273 5.70107 0.5 7.47005 0.5ZM7.24005 2.8C6.14206 2.8 5.08903 3.23618 4.31263 4.01258C3.53623 4.78898 3.10005 5.84201 3.10005 6.94V17.06C3.10005 19.3485 4.95155 21.2 7.24005 21.2H17.36C18.458 21.2 19.5111 20.7638 20.2875 19.9874C21.0639 19.211 21.5 18.158 21.5 17.06V6.94C21.5 4.6515 19.6485 2.8 17.36 2.8H7.24005ZM18.3375 4.525C18.7188 4.525 19.0844 4.67645 19.354 4.94604C19.6236 5.21561 19.775 5.58126 19.775 5.9625C19.775 6.34374 19.6236 6.70939 19.354 6.97896C19.0844 7.24853 18.7188 7.4 18.3375 7.4C17.9563 7.4 17.5907 7.24853 17.3211 6.97896C17.0515 6.70939 16.9 6.34374 16.9 5.9625C16.9 5.58126 17.0515 5.21561 17.3211 4.94604C17.5907 4.67645 17.9563 4.525 18.3375 4.525ZM12.3 6.25C13.825 6.25 15.2876 6.85579 16.3659 7.93412C17.4443 9.01249 18.05 10.475 18.05 12C18.05 13.525 17.4443 14.9875 16.3659 16.0659C15.2876 17.1442 13.825 17.75 12.3 17.75C10.7751 17.75 9.31254 17.1442 8.23417 16.0659C7.15584 14.9875 6.55005 13.525 6.55005 12C6.55005 10.475 7.15584 9.01249 8.23417 7.93412C9.31254 6.85579 10.7751 6.25 12.3 6.25ZM12.3 8.55C11.3851 8.55 10.5076 8.91349 9.86055 9.5605C9.21354 10.2075 8.85005 11.085 8.85005 12C8.85005 12.915 9.21354 13.7925 9.86055 14.4395C10.5076 15.0865 11.3851 15.45 12.3 15.45C13.215 15.45 14.0925 15.0865 14.7396 14.4395C15.3866 13.7925 15.75 12.915 15.75 12C15.75 11.085 15.3866 10.2075 14.7396 9.5605C14.0925 8.91349 13.215 8.55 12.3 8.55Z" fill="#24223E"/>
</svg>
