<svg width="23" height="22" viewBox="0 0 23 22" fill="none" xmlns="http://www.w3.org/2000/svg">
<path d="M1.49325 21.5H4.26842C4.65129 21.5 4.96163 21.1658 4.96163 20.7534V7.69013C4.96163 7.27777 4.65129 6.9436 4.26842 6.9436H1.49325C1.11035 6.9436 0.800049 7.27777 0.800049 7.69013V20.7534C0.800049 21.1657 1.11035 21.5 1.49325 21.5Z" fill="#24223E"/>
<path d="M1.49325 4.64699H4.26842C4.65129 4.64699 4.96163 4.31278 4.96163 3.90046V1.24653C4.96163 0.834211 4.65129 0.5 4.26842 0.5H1.49325C1.11035 0.5 0.800049 0.834211 0.800049 1.24653V3.90046C0.800049 4.31278 1.11035 4.64699 1.49325 4.64699Z" fill="#24223E"/>
<path d="M21.1031 8.45868C20.7131 7.90587 20.1381 7.45126 19.3777 7.09492C18.6174 6.73884 17.7782 6.56067 16.8599 6.56067C14.9959 6.56067 13.4164 7.32678 12.1215 8.85931C11.8638 9.16424 11.6765 9.09757 11.6765 8.68521V7.69003C11.6765 7.27767 11.3661 6.9435 10.9832 6.9435H8.50421C8.1213 6.9435 7.811 7.27767 7.811 7.69003V20.7533C7.811 21.1656 8.12134 21.4999 8.50421 21.4999H11.2794C11.6623 21.4999 11.9726 21.1656 11.9726 20.7533V16.2102C11.9726 14.3176 12.0787 13.0203 12.291 12.3186C12.5031 11.6168 12.8957 11.0533 13.4684 10.628C14.0411 10.2027 14.6877 9.98991 15.4086 9.98991C15.9713 9.98991 16.4527 10.1388 16.8526 10.4366C17.2525 10.7344 17.5413 11.1515 17.7191 11.6886C17.8969 12.2256 17.9857 13.4085 17.9857 15.2374V20.7533C17.9857 21.1656 18.296 21.4999 18.6789 21.4999H21.454C21.8369 21.4999 22.1472 21.1656 22.1472 20.7533V13.3553C22.1472 12.0475 22.0707 11.0427 21.9178 10.3409C21.7649 9.63919 21.4933 9.01177 21.1031 8.45868Z" fill="#24223E"/>
</svg>
